<svg width="82" height="82" viewBox="0 0 82 82" fill="none" xmlns="http://www.w3.org/2000/svg">
<g clip-path="url(#clip0_10258_108158)">
<path d="M43.4775 43.9362H81.75V75.7287C73.3969 75.7308 73.3969 75.7308 70.2075 75.7312C69.3722 75.7313 68.5369 75.7314 67.7067 75.7315C67.6059 75.7315 67.5047 75.7315 67.4039 75.7315C65.7941 75.7318 64.1842 75.7321 62.5743 75.7326C60.9189 75.7331 59.2685 75.7334 57.6131 75.7335C57.3797 75.7335 57.1463 75.7335 56.9144 75.7335C56.8685 75.7336 56.8228 75.7336 56.7752 75.7336C56.0361 75.7336 55.2919 75.7339 54.5528 75.7342C53.8086 75.7345 53.0644 75.7346 52.3202 75.7345C51.8777 75.7345 51.4343 75.7346 50.9938 75.7349C50.6987 75.7351 50.4015 75.7351 50.1079 75.7349C49.9393 75.7348 49.7707 75.7349 49.6027 75.7351C49.4219 75.7353 49.2407 75.7352 49.061 75.735C49.0078 75.7351 48.9547 75.7352 48.9 75.7354C48.8522 75.7353 48.8043 75.7352 48.7552 75.735C48.7138 75.735 48.6722 75.7351 48.6296 75.7351C48.536 75.7287 48.536 75.7287 48.4854 75.6784C48.4805 75.6065 48.4791 75.5346 48.4791 75.4627C48.479 75.3923 48.479 75.3923 48.4788 75.3209C48.479 75.2688 48.4791 75.2167 48.4793 75.163C48.4792 75.1083 48.4792 75.0531 48.4791 74.9969C48.4791 74.8117 48.4793 74.6264 48.4796 74.4401C48.4796 74.3079 48.4796 74.1758 48.4796 74.0437C48.4796 73.7582 48.4797 73.4716 48.48 73.1881C48.4804 72.7755 48.4806 72.3629 48.4806 71.9529C48.4807 71.2846 48.4811 70.6164 48.4815 69.9431C48.482 69.2951 48.4824 68.642 48.4826 67.994C48.4826 67.9539 48.4826 67.914 48.4826 67.8725C48.4827 67.6715 48.4828 67.4705 48.4828 67.2701C48.4833 65.5994 48.4842 63.9339 48.4854 62.2632C48.6408 62.2116 48.7466 62.206 48.9091 62.206C48.9931 62.2058 48.9931 62.2058 49.0787 62.2056C49.1394 62.2057 49.2007 62.2058 49.263 62.2059C49.3268 62.2058 49.39 62.2058 49.4558 62.2057C49.5915 62.2057 49.7272 62.2057 49.8629 62.206C50.0649 62.2063 50.2669 62.206 50.4704 62.2057C50.603 62.2057 50.7362 62.2058 50.8688 62.2059C50.9559 62.2057 50.9559 62.2057 51.045 62.2056C51.7638 62.2075 52.4777 62.2393 53.1965 62.2633V66.9714C54.7659 66.9547 56.3353 66.938 57.9553 66.9208C57.972 65.3666 57.9887 63.8124 58.0059 62.2126C60.2739 62.219 60.2739 62.219 60.9928 62.2218C61.2044 62.2221 61.2044 62.2221 61.4165 62.2223C61.5107 62.2224 61.6053 62.2228 61.6995 62.2233C61.8423 62.2241 61.9855 62.2242 62.1283 62.2241C62.1704 62.2245 62.2123 62.2249 62.2559 62.2252C62.4528 62.2245 62.548 62.2231 62.7155 62.1113C62.73 61.963 62.7347 61.8253 62.7328 61.677C62.7328 61.6313 62.7328 61.5858 62.7329 61.5388C62.7328 61.3904 62.7316 61.2421 62.7304 61.0938C62.7302 61.0026 62.73 60.911 62.7299 60.8199C62.7291 60.4807 62.727 60.1415 62.7251 59.8023C62.7204 58.6633 62.7204 58.6633 62.7155 57.5039C61.1614 57.4872 59.6072 57.4705 58.0074 57.4533V52.6946C56.438 52.7113 54.8687 52.728 53.2487 52.7452C53.234 54.2741 53.234 54.2741 53.2199 55.808C53.2169 56.1037 53.2169 56.1037 53.2155 56.2414C53.2145 56.338 53.2136 56.4352 53.2128 56.5319C53.2116 56.6782 53.2101 56.8246 53.2084 56.9709C53.2082 57.0143 53.2079 57.0579 53.2076 57.1025C53.2038 57.3981 53.2038 57.3981 53.1473 57.4548C53.004 57.4599 52.8623 57.4617 52.7195 57.4614C52.6747 57.4615 52.6299 57.4615 52.5834 57.4616C52.4345 57.4619 52.2852 57.4617 52.1363 57.4615C52.0331 57.4616 51.9303 57.4616 51.827 57.4617C51.6108 57.4618 51.3942 57.4617 51.179 57.4614C50.9011 57.4611 50.6221 57.4613 50.3437 57.4616C50.1306 57.4618 49.9179 57.4617 49.7058 57.4616C49.6031 57.4616 49.5008 57.4616 49.398 57.4617C49.2548 57.4618 49.112 57.4616 48.9687 57.4614C48.9259 57.4615 48.8832 57.4616 48.8391 57.4617C48.547 57.4606 48.547 57.4606 48.4903 57.404C48.4835 57.3078 48.48 57.2116 48.4779 57.1154C48.4763 57.0557 48.4747 56.9954 48.4731 56.9337C48.4706 56.8375 48.4706 56.8375 48.4682 56.7393C48.4034 54.7092 47.7696 52.9677 46.3622 51.4743C46.3281 51.4369 46.2938 51.3998 46.2589 51.3614C45.5451 50.6071 44.6085 50.0907 43.6568 49.7059C43.5287 49.6523 43.5287 49.6523 43.4781 49.6016V43.9316L43.4775 43.9362Z" fill="#004E75"/>
<path d="M1.23287 38.8743C1.26684 38.8743 1.30071 38.8744 1.33564 38.8744C1.45005 38.8745 1.56446 38.8751 1.67938 38.8756C1.7619 38.8758 1.84442 38.8759 1.92643 38.8761C2.15374 38.8765 2.38155 38.8773 2.60987 38.8781C2.85844 38.879 3.10751 38.8795 3.35406 38.8801C3.83753 38.8813 4.321 38.8828 4.80193 38.8843C5.35881 38.8861 5.92075 38.8876 6.47762 38.889C7.95587 38.893 9.42906 38.8975 10.9073 38.9019C14.203 38.9113 17.4886 38.9207 20.8804 38.9303V75.6841C19.4781 76.3878 17.7417 75.7347 16.1723 75.7347C16.1472 68.7991 16.1472 68.7991 16.1217 61.7116H5.54106C5.50456 61.8944 5.48385 62.0295 5.48335 62.2097C5.48298 62.2821 5.48298 62.2821 5.4826 62.3561C5.48259 62.4087 5.48257 62.4614 5.48256 62.5155C5.48234 62.5717 5.48213 62.6279 5.48191 62.6856C5.48125 62.8745 5.48094 63.0628 5.48064 63.2526C5.48024 63.3878 5.47981 63.523 5.47937 63.6581C5.47844 63.9492 5.47769 64.2403 5.47705 64.5339C5.47612 64.9546 5.47487 65.3743 5.47353 65.7945C5.47137 66.4779 5.46939 67.1614 5.46756 67.8448C5.46745 67.8857 5.46734 67.9263 5.46723 67.9688C5.46634 68.3004 5.46546 68.632 5.46459 68.9662C5.46382 69.2562 5.46305 69.5483 5.46227 69.8369C5.46216 69.8778 5.46205 69.9189 5.46194 69.9609C5.46011 70.6393 5.45809 71.3228 5.45592 72.0011C5.45459 72.4213 5.45345 72.8415 5.45253 73.2617C5.45189 73.5492 5.45107 73.8388 5.45012 74.1223C5.44957 74.2884 5.44913 74.4544 5.44887 74.6205C5.44856 74.8002 5.44795 74.9799 5.44727 75.1571C5.44725 75.2103 5.44724 75.2634 5.44722 75.3181C5.44685 75.3895 5.44685 75.3895 5.44648 75.4629C5.44637 75.5044 5.44626 75.5459 5.44615 75.5889C5.43962 75.6831 5.43962 75.6831 5.38895 75.7337H0.731445V38.9293C0.90357 38.8721 1.03266 38.8726 1.21441 38.8731L1.23287 38.8743Z" fill="#004E75"/>
<path d="M23.0752 7.84032C23.1643 7.91677 23.2529 7.99372 23.341 8.07117C23.3658 8.09264 23.3905 8.1141 23.4159 8.13597C24.2563 8.86497 24.8587 9.75091 25.3143 10.7533C25.3557 10.8429 25.3557 10.8429 25.3979 10.934C25.9952 12.3161 26.1167 14.0019 25.77 15.4599C25.7582 15.5136 25.7582 15.5136 25.7461 15.5677C25.3395 17.3801 24.1818 19.0558 22.6174 20.0632C21.4176 20.8175 20.2431 21.1922 18.8307 21.2833C19.0079 21.2908 19.1851 21.2981 19.3623 21.3055C19.4463 21.309 19.4463 21.309 19.5324 21.3126C19.8553 21.3258 20.1804 21.3364 20.5044 21.3432C23.5419 21.4101 26.0731 22.3507 28.25 24.4972C28.277 24.5235 28.3041 24.5498 28.332 24.5772C28.3973 24.6425 28.4601 24.7103 28.5223 24.7786V24.8799H28.6236C28.7203 24.9938 28.8104 25.1077 28.899 25.2282C28.9259 25.2645 28.9527 25.3006 28.9805 25.338C30.4942 27.4137 31.0106 29.6412 31.0106 32.1724C31.0105 32.3005 31.0106 32.4291 31.0106 32.5572C31.0106 32.8321 31.0105 33.109 31.0102 33.3824C31.0098 33.7803 31.0096 34.1772 31.0096 34.5771C31.0094 35.22 31.0091 35.868 31.0086 36.511C31.0082 37.1387 31.0078 37.7665 31.0076 38.3892C31.0076 38.4283 31.0076 38.4671 31.0076 38.5076C31.0074 38.8134 31.0073 39.1202 31.0073 39.4239C31.0068 40.9174 31.0058 42.4159 31.0048 43.9093H38.6998V49.1743C36.1686 49.187 36.1686 49.187 35.0953 49.1923C34.3562 49.1959 33.6221 49.1996 32.883 49.2033C32.3464 49.206 31.8097 49.2086 31.2681 49.2113C30.9846 49.2127 30.7011 49.2141 30.4176 49.2155C29.7392 49.219 29.0608 49.222 28.3824 49.2243C28.2721 49.2247 28.1622 49.2251 28.0519 49.2255C27.7076 49.2268 27.3634 49.2278 27.0191 49.2284C26.9103 49.2286 26.8019 49.2289 26.6931 49.2293C26.5437 49.2299 26.3939 49.2301 26.2445 49.2302C26.1999 49.2304 26.1554 49.2307 26.1094 49.2309C25.8036 49.2307 25.8036 49.2307 25.6907 49.1742V34.0879H5.8457C5.8457 29.9823 6.08314 27.0511 8.89333 24.1654C9.50589 23.5529 10.2096 23.0618 10.9588 22.6264L11.0575 22.5682C11.9435 22.0518 12.9408 21.6975 13.9482 21.5152C13.9919 21.5068 14.0358 21.4985 14.0809 21.4898C14.4919 21.4154 14.901 21.3835 15.3161 21.3602C15.3688 21.3571 15.3688 21.3571 15.4229 21.354C16.2785 21.3038 17.1391 21.2811 17.9947 21.2624C17.9375 21.2597 17.8803 21.257 17.8216 21.2543C17.2849 21.2273 16.7939 21.1601 16.2724 21.0093C16.238 20.9993 16.2036 20.9893 16.1681 20.9791C15.2923 20.7163 14.4368 20.2855 13.7432 19.6932C13.7011 19.6575 13.6592 19.6218 13.6156 19.5848C13.4865 19.4714 13.3615 19.3555 13.237 19.2376L13.1635 19.1682C11.7359 17.8165 10.931 15.9434 10.8601 14.0044C10.8193 11.944 11.6043 9.97976 13.0167 8.48632C13.3185 8.17852 13.6445 7.91426 13.9989 7.66114C14.0289 7.63927 14.0591 7.61745 14.09 7.59482C16.7427 5.68625 20.57 5.79257 23.1012 7.83529L23.0752 7.84032Z" fill="#00AB55"/>
<path d="M69.0935 8.14471C69.1487 8.19072 69.1487 8.19072 69.2054 8.23786C69.4463 8.44137 69.6539 8.66007 69.8534 8.90611C69.8919 8.95288 69.9303 8.99976 69.9703 9.04786C70.7702 10.0401 71.2663 11.1589 71.5245 12.3992C71.5432 12.4843 71.5432 12.4843 71.5623 12.5709C71.8964 14.4085 71.4509 16.4791 70.3928 18.0384C69.9301 18.6914 69.4309 19.2736 68.7931 19.7596C68.7404 19.8002 68.6883 19.8406 68.6341 19.8826C67.4394 20.7888 66.0826 21.2647 64.5892 21.3305C64.7577 21.338 64.9268 21.3454 65.0954 21.3527C65.1491 21.355 65.2027 21.3574 65.2579 21.3598C65.5738 21.3732 65.8907 21.3838 66.2046 21.3904C69.1409 21.4547 71.6215 22.327 73.7477 24.3672C73.7845 24.4013 73.8211 24.4355 73.8591 24.4705C74.1522 24.7499 74.3957 25.0678 74.6387 25.3918C74.7025 25.4759 74.7678 25.5589 74.8331 25.6419C76.1949 27.4391 76.6961 29.6565 76.686 31.8688C76.686 31.9498 76.686 32.0313 76.686 32.1123C76.686 32.3275 76.6857 32.5431 76.6854 32.7603C76.6851 32.9633 76.6851 33.1663 76.6851 33.3678C76.6848 33.9601 76.6841 34.5524 76.6834 35.1447C76.6824 36.4661 76.6813 37.7924 76.6803 39.1542H61.594C61.4973 38.6075 61.4077 38.0658 61.3419 37.514C61.333 37.4411 61.3241 37.3682 61.3152 37.2953C61.2964 37.1409 61.2777 36.9865 61.259 36.8321C61.2144 36.4615 61.1689 36.0929 61.1239 35.7234C61.1084 35.5968 61.093 35.4703 61.0775 35.3437C60.9783 34.5286 60.875 33.7186 60.7713 32.9036C60.587 31.4608 60.587 31.4608 60.5019 30.7571C60.4959 30.7074 60.4899 30.6578 60.4837 30.6062C60.4563 30.3799 60.429 30.1536 60.4022 29.9278C60.3974 29.8884 60.3927 29.8489 60.3878 29.8084C60.3754 29.7046 60.3631 29.6013 60.3509 29.4975C60.3302 29.3269 60.3302 29.3269 60.2775 29.132C56.0655 29.107 56.0655 29.107 51.7725 29.0814C52.1284 27.8968 52.1284 27.8968 52.3395 27.431C52.3633 27.3779 52.387 27.3247 52.4113 27.27C52.8898 26.2271 53.5555 25.3007 54.3553 24.4755C54.3938 24.4351 54.3938 24.4351 54.4328 24.394C54.8176 23.9905 55.2175 23.6346 55.6731 23.3106C55.7014 23.2902 55.7298 23.2698 55.7587 23.2489C57.7229 21.8415 59.8947 21.4517 62.2387 21.3808C62.3713 21.3764 62.5039 21.372 62.6366 21.3676C62.9586 21.3568 63.2795 21.3465 63.6035 21.3365C63.5494 21.3335 63.4952 21.3304 63.439 21.3274C63.3666 21.3231 63.2937 21.3189 63.2213 21.3146C63.1857 21.3126 63.1499 21.3107 63.1135 21.3086C61.782 21.2291 60.4202 20.6151 59.4027 19.7696C59.374 19.7462 59.3455 19.7229 59.3161 19.6988C58.9243 19.3783 58.5567 19.0507 58.2378 18.6559C58.2166 18.6299 58.1955 18.6037 58.1735 18.5774C57.1762 17.3371 56.5687 15.7475 56.518 14.1528C56.516 14.1116 56.514 14.0703 56.5119 14.0282C56.4578 11.9577 57.3017 10.0187 58.704 8.51012C59.7874 7.3913 61.2251 6.69774 62.7439 6.39399C62.799 6.3825 62.8542 6.37101 62.9109 6.35916C65.1384 5.96732 67.3862 6.71607 69.0872 8.16647L69.0935 8.14471Z" fill="#00AB55"/>
<path d="M25.961 54.0112C26.042 54.0109 26.042 54.0109 26.1245 54.0106C26.2146 54.0107 26.2146 54.0107 26.3062 54.0108C26.3695 54.0106 26.4328 54.0105 26.4976 54.0103C26.6737 54.0099 26.8499 54.0098 27.0241 54.0098C27.2139 54.0097 27.4038 54.0093 27.5961 54.009C28.0118 54.0083 28.4264 54.008 28.8415 54.0078C29.1012 54.0076 29.363 54.0074 29.6211 54.0072C30.34 54.0066 31.0589 54.006 31.7778 54.0059C31.8238 54.0059 31.8699 54.0058 31.9175 54.0058C31.9637 54.0058 32.0096 54.0058 32.0572 54.0058C32.1509 54.0058 32.2445 54.0057 32.3382 54.0057C32.3846 54.0057 32.4308 54.0057 32.4789 54.0057C33.2282 54.0055 33.9825 54.0046 34.7317 54.0034C35.5012 54.0022 36.2758 54.0016 37.0453 54.0015C37.4781 54.0015 37.911 54.0012 38.3413 54.0003C38.7103 53.9995 39.0804 53.9992 39.45 53.9997C39.6378 53.9999 39.8261 53.9998 40.0119 53.9991C40.2164 53.9983 40.421 53.9988 40.6245 53.9993C40.6832 53.9989 40.7414 53.9985 40.8022 53.998C41.6932 54.0034 42.4323 54.2456 43.0752 54.8789C43.5298 55.4358 43.7384 56.023 43.7384 56.7419C43.7385 56.7749 43.7385 56.8077 43.7386 56.8417C43.7387 56.9515 43.7385 57.0619 43.7383 57.1717C43.7383 57.2517 43.7383 57.3317 43.7384 57.4112C43.7385 57.6304 43.7383 57.8496 43.7381 58.0693C43.7379 58.3057 43.7379 58.5421 43.738 58.7781C43.738 59.1876 43.7378 59.5982 43.7375 60.0082C43.7371 60.6006 43.737 61.1929 43.7369 61.7852C43.7368 62.7471 43.7365 63.7039 43.736 64.6657C43.7355 65.5972 43.7352 66.5338 43.735 67.4653C43.735 67.5514 43.735 67.5514 43.7349 67.6395C43.7349 67.928 43.7348 68.2166 43.7347 68.5051C43.7342 70.8997 43.7333 73.2943 43.7322 75.6939C43.5682 75.7486 43.4502 75.7506 43.2776 75.7506C43.1829 75.7507 43.1829 75.7507 43.0857 75.7508C43.0153 75.7506 42.9455 75.7504 42.8751 75.7503C42.8012 75.7502 42.7273 75.7503 42.6534 75.7503C42.4529 75.7503 42.2519 75.75 42.0509 75.7496C41.8414 75.7493 41.6318 75.7493 41.4232 75.7492C41.0263 75.7491 40.6284 75.7487 40.2335 75.7482C39.7814 75.7476 39.3273 75.7473 38.8768 75.7471C37.9453 75.7465 37.0188 75.7456 36.0873 75.7445C36.0013 75.5729 36.0301 75.3775 36.0311 75.1876C36.0311 75.1399 36.0311 75.092 36.0311 75.0428C36.0311 74.8819 36.0315 74.7209 36.0319 74.5599C36.032 74.445 36.0321 74.3295 36.0321 74.2146C36.0323 73.9661 36.0326 73.717 36.0331 73.4704C36.0337 73.0751 36.034 72.6807 36.0343 72.2858C36.0347 71.7289 36.0352 71.1721 36.0358 70.6152C36.0359 70.562 36.0359 70.562 36.036 70.5084C36.0363 70.1874 36.0367 69.8654 36.0371 69.5465C36.0374 69.3349 36.0377 69.1238 36.0379 68.9137C36.0379 68.879 36.038 68.8443 36.038 68.8084C36.0387 68.2211 36.0392 67.6389 36.0396 67.0517C36.0398 66.7241 36.0401 66.3986 36.0407 66.0696C36.0432 64.6217 36.0367 63.1738 35.986 61.7259C35.9349 61.726 35.8837 61.726 35.8311 61.7261C34.5908 61.7272 33.3454 61.728 32.1051 61.7286C31.5026 61.7288 30.9053 61.7292 30.3028 61.7298C29.7814 61.7303 29.2549 61.7306 28.7335 61.7307C28.456 61.7308 28.1766 61.7309 27.9032 61.7313C27.642 61.7316 27.3818 61.7317 27.1185 61.7317C27.0228 61.7317 26.9272 61.7318 26.831 61.732C26.6999 61.7322 26.5692 61.7322 26.4381 61.732C26.4004 61.7322 26.3627 61.7323 26.3237 61.7325C26.0974 61.7318 25.8848 61.7121 25.6605 61.6753C25.6593 60.6881 25.6584 59.6958 25.6579 58.7086C25.6576 58.2495 25.6573 57.7923 25.6567 57.3316C25.6562 56.9317 25.6559 56.5318 25.6558 56.1318C25.6557 55.9197 25.6555 55.7076 25.6552 55.494C25.6548 55.2945 25.6547 55.0955 25.6548 54.8966C25.6548 54.8232 25.6547 54.7498 25.6545 54.6764C25.6542 54.5766 25.6543 54.4769 25.6544 54.3772C25.6544 54.321 25.6543 54.2653 25.6543 54.2076C25.6653 53.9868 25.7626 54.0258 25.9591 54.0253L25.961 54.0112Z" fill="#004E75"/>
<path d="M44.1359 33.862C45.6547 33.8608 47.1785 33.86 48.6972 33.8594C48.8764 33.8594 49.0562 33.8593 49.2338 33.8592C49.2696 33.8592 49.3052 33.8592 49.3422 33.8592C49.9193 33.859 50.5015 33.8586 51.0786 33.8581C51.6709 33.8576 52.2683 33.8573 52.8606 33.8572C53.1942 33.8572 53.5289 33.857 53.863 33.8567C54.1769 33.8563 54.4907 33.8562 54.8046 33.8563C54.92 33.8563 55.0355 33.8562 55.1509 33.856C55.3078 33.8557 55.4648 33.8558 55.6217 33.8559C55.6911 33.8557 55.6911 33.8557 55.7619 33.8555C56.0753 33.8562 56.0753 33.8562 56.132 33.9127C56.155 34.0615 56.1751 34.2098 56.1938 34.3587C56.2027 34.4291 56.2027 34.4291 56.2117 34.5004C56.2314 34.6564 56.2508 34.8118 56.27 34.9677C56.2835 35.0755 56.297 35.1839 56.3106 35.2917C56.3391 35.5185 56.3673 35.7458 56.3957 35.9751C56.4318 36.2657 56.4681 36.5573 56.505 36.8459C56.5331 37.0691 56.5612 37.2929 56.5885 37.5141C56.6019 37.6215 56.6153 37.7283 56.6288 37.8356C56.6477 37.986 56.6663 38.1358 56.685 38.2862C56.6934 38.3525 56.6934 38.3525 56.7019 38.4198C56.707 38.4611 56.712 38.5023 56.7172 38.5449C56.7216 38.5803 56.726 38.6157 56.7306 38.6522C56.743 38.8096 56.74 38.9681 56.74 39.126H44.7925C44.6178 38.1389 44.6178 38.1389 44.5768 37.7946C44.5718 37.755 44.5669 37.7151 44.5618 37.6746C44.5459 37.5476 44.5304 37.4205 44.5149 37.2934C44.5038 37.2033 44.4927 37.1137 44.4815 37.0236C44.4584 36.8368 44.4356 36.6505 44.4127 36.4616C44.3835 36.2227 44.354 35.9843 44.3241 35.7478C44.3012 35.5631 44.2784 35.3778 44.2557 35.191C44.2449 35.1029 44.234 35.0148 44.2231 34.9267C44.2079 34.8042 44.1929 34.6812 44.178 34.5587C44.1735 34.5228 44.169 34.4868 44.1644 34.4498C44.1406 34.2509 44.1324 34.0575 44.134 33.8575L44.1359 33.862Z" fill="#004E75"/>
</g>
<defs>
<clipPath id="clip0_10258_108158">
<rect width="81" height="81" fill="white" transform="translate(0.75 0.5)"/>
</clipPath>
</defs>
</svg>
