<svg width="60" height="60" viewBox="0 0 60 60" fill="none" xmlns="http://www.w3.org/2000/svg">
<mask id="mask0_10742_4620" style="mask-type:luminance" maskUnits="userSpaceOnUse" x="5" y="5" width="51" height="50">
<path d="M55.333 5H5.33301V55H55.333V5Z" fill="white"/>
</mask>
<g mask="url(#mask0_10742_4620)">
<path fill-rule="evenodd" clip-rule="evenodd" d="M41.5633 35.7057C40.0174 35.9271 38.5689 36.4186 37.2664 37.292C36.2132 37.9981 35.3076 38.8942 34.6165 39.9608C31.9428 44.0872 32.7652 49.7731 36.5828 52.9037C37.7409 53.8534 39.133 54.4808 40.5867 54.8156C41.6839 55.0682 42.9857 55.118 44.1024 54.9581C45.4896 54.7593 46.828 54.2696 48.0086 53.5137C53.8118 49.7982 53.8371 40.8828 48.0086 37.1713C47.0492 36.5604 45.9978 36.1171 44.8836 35.8798C43.8176 35.6528 42.6486 35.5504 41.5633 35.7057ZM40.2245 43.7314C39.4088 43.6793 38.498 43.621 37.8528 43.9029C36.7093 44.4025 36.5942 46.04 37.6585 46.6983C38.3535 47.128 39.3952 47.071 40.3024 47.0213C40.5767 47.0063 40.8386 46.9921 41.075 46.9921C41.075 47.2253 41.0612 47.4845 41.0467 47.7566C40.9982 48.6649 40.9421 49.7147 41.3689 50.4086C42.0239 51.4733 43.6888 51.3775 44.1778 50.2146C44.4483 49.5711 44.3895 48.6671 44.3367 47.8556C44.3168 47.548 44.2977 47.2538 44.2977 46.9921C44.5408 46.9921 44.8104 47.007 45.0928 47.0226C46.0272 47.0745 47.1008 47.134 47.8118 46.6847C48.8948 46.0002 48.7084 44.324 47.52 43.8666C46.8749 43.6182 45.9886 43.6762 45.1861 43.7289C44.8704 43.7496 44.5677 43.7694 44.2977 43.7694C44.2977 43.4994 44.3175 43.1966 44.3382 42.8809C44.3908 42.0784 44.4489 41.1921 44.2005 40.5471C43.7502 39.3772 42.0595 39.1669 41.3903 40.2577C40.9438 40.9854 40.9989 42.0533 41.0472 42.9886C41.0614 43.2644 41.075 43.5288 41.075 43.7694C40.8169 43.7694 40.5273 43.7508 40.2245 43.7314Z" fill="#00AB55"/>
<path d="M32.8721 52.2656C32.7188 51.9102 32.5238 51.5755 32.3286 51.2404C32.1518 50.9367 31.9746 50.6326 31.828 50.3124C31.2181 48.9803 30.7919 47.486 30.7274 46.0156C30.4947 40.7009 33.8372 35.8233 38.8291 34.0091C40.3016 33.4739 41.8646 33.3202 43.4189 33.3202C42.6844 31.6722 40.6729 31.0344 38.9143 30.4768C38.4333 30.3243 37.9714 30.1779 37.5596 30.0184C37.0985 29.8398 36.6406 29.644 36.1924 29.4355C36.1551 29.4181 36.117 29.3991 36.0783 29.3799C35.8693 29.2758 35.6413 29.1622 35.4111 29.2422C35.1827 29.3216 34.9932 29.5201 34.8161 29.7057C34.7528 29.772 34.6912 29.8365 34.6299 29.8935C34.2633 30.2341 33.8725 30.5631 33.458 30.8438C32.0241 31.815 30.3897 32.4028 28.6729 32.6088C26.2978 32.8938 23.9185 32.4192 21.8369 31.2278C21.1705 30.8463 20.5608 30.3769 19.9814 29.874C19.9168 29.8179 19.8505 29.7509 19.7816 29.6814C19.5824 29.4801 19.3624 29.2577 19.1025 29.2181C18.7677 29.167 18.3137 29.4193 17.9186 29.6389C17.743 29.7364 17.5791 29.8275 17.4424 29.8826C16.9079 30.0984 16.3593 30.2831 15.8105 30.468C14.8669 30.7858 13.9225 31.1038 13.0479 31.5798C11.5142 32.4144 10.6934 33.8818 10.1136 35.4687C9.10235 38.236 8.73313 41.3412 8.44151 44.2577C8.34692 45.2037 8.26233 46.1375 8.2627 47.0898C8.26292 47.6807 8.26434 48.2746 8.67555 48.7457C9.23284 49.3841 10.2221 49.6652 11.0985 49.9142C11.3371 49.982 11.5674 50.0474 11.7783 50.117C14.6227 51.0558 17.606 51.5528 20.5527 52.0437L20.5674 52.0461C22.7502 52.4098 25.0932 52.7054 27.3057 52.6547C28.1792 52.6348 29.0538 52.5485 29.928 52.4621C30.9104 52.3652 31.8925 52.2683 32.8721 52.2656Z" fill="#004E75"/>
<path d="M25.6457 5.04181C23.1118 5.38672 20.6709 6.33976 19.0552 8.41826C16.8218 11.2915 16.6709 15.1253 17.2058 18.5745C17.973 23.5212 20.1755 29.4621 25.841 30.2654C26.8649 30.4105 27.8438 30.4031 28.8683 30.265C33.6285 29.6235 36.1713 24.8906 37.092 20.6253C38.0579 16.1505 38.3775 10.4277 34.4347 7.19409C33.8959 6.75213 33.3071 6.35158 32.6769 6.05311C31.6895 5.58546 30.631 5.28343 29.5519 5.12447C28.3103 4.94157 26.8938 4.87191 25.6457 5.04181Z" fill="#004E75"/>
</g>
</svg>
